Coordinates
version=1
nRows=19
nColumns=36
inDegrees=yes

Units are S.I. units (second, meters, Newtons, ...)
If the header above contains a line with 'inDegrees', this indicates whether rotational values are in degrees (yes) or radians (no).

endheader
time	pelvis_tilt	pelvis_list	pelvis_rotation	pelvis_tx	pelvis_ty	pelvis_tz	hip_flexion_r	hip_adduction_r	hip_rotation_r	knee_angle_r	knee_angle_r_beta	ankle_angle_r	subtalar_angle_r	mtp_angle_r	hip_flexion_l	hip_adduction_l	hip_rotation_l	knee_angle_l	knee_angle_l_beta	ankle_angle_l	subtalar_angle_l	mtp_angle_l	lumbar_extension	lumbar_bending	lumbar_rotation	arm_flex_r	arm_add_r	arm_rot_r	elbow_flex_r	pro_sup_r	arm_flex_l	arm_add_l	arm_rot_l	elbow_flex_l	pro_sup_l
      0.00000000	      6.07064672	     -1.25355415	      3.24212992	     -0.94318693	      1.27341585	     -0.06771363	     -5.79024441	      2.24289000	      4.15386607	      4.54939878	      0.07940199	      3.65366628	    -15.12284746	     -6.23806410	     -3.11552906	     -1.77227686	      2.71870777	      9.62778997	      0.16803663	      9.15586829	    -12.72251484	     -6.23806410	    -19.65723161	      1.01354070	      1.97974292	     13.65484894	     -4.63792532	     26.26462732	     21.78937832	     73.71056181	      6.86366948	     -3.40035825	     16.77724607	     18.26852173	     64.48357197
      0.00166670	      4.53902401	     -1.74165026	      2.93544524	     -0.94130555	      1.27356357	     -0.06774840	     -4.05642189	      2.68600310	      4.65514585	      4.87726776	      0.08512438	      5.37258199	    -12.96142994	     -6.44113513	     -1.51010288	     -1.65429064	      2.74522613	      9.23231530	      0.16113430	      8.42477759	    -12.66771410	     -6.44113513	    -17.44803275	      1.43577745	      2.35484030	     13.05127792	     -4.45756546	     24.84505650	     21.54506192	     72.12279524	      6.68392583	     -3.02265114	     15.69929473	     18.02495679	     63.75777726
      0.00333330	      4.56848176	     -1.24093393	      2.33116803	     -0.93464548	      1.27279150	     -0.07152786	     -5.09687723	      1.91454822	      3.82416074	      3.68700126	      0.06435031	      5.90229422	    -10.71125431	     -6.90731725	     -2.44453949	     -0.90734010	      2.06330280	      8.08910449	      0.14118151	      8.09761848	    -12.39337541	     -6.90731725	    -17.32798206	      0.46899640	      2.51584750	     11.89703608	     -3.17561760	     15.52807166	     22.30428709	     84.06917852	      6.80406737	     -2.70777689	     10.73077748	     18.07884671	     68.11874378
      0.00500000	      5.78243468	     -0.87506879	      1.85820626	     -0.93475968	      1.27750669	     -0.07039007	     -6.98394732	      1.43468675	      3.70263784	      2.80758490	      0.04900160	      6.17786574	     -9.27773819	     -6.92822740	     -4.76430871	     -0.43662983	      1.91655873	      6.77307860	      0.11821252	      7.35146595	    -12.92417737	     -6.92822740	    -18.75856329	     -0.02469313	      2.78114010	     11.66426165	     -3.02056448	     14.68636566	     22.10095601	     83.87290064	      7.38365740	     -2.79127885	      9.92795374	     17.83041844	     67.94845456
      0.00666670	      6.62193077	     -0.89092886	      1.65053668	     -0.93494104	      1.27443606	     -0.07004165	     -8.30954123	      1.38625481	      3.52541027	      2.19127053	      0.03824489	      6.22324679	     -8.60146032	     -6.96477281	     -6.16829565	     -0.37780169	      2.14091987	      6.07302847	      0.10599434	      7.35773512	    -12.95091651	     -6.96477281	    -19.76941787	     -0.04400456	      2.93032277	     11.24900354	     -3.17714021	     13.50061808	     22.76777382	     83.86108791	      7.24635818	     -2.83940375	      7.96883136	     18.14318243	     67.90398799
      0.00833330	      7.15034755	     -0.96786122	      1.69350119	     -0.93573907	      1.26446670	     -0.06995072	     -9.09009306	      1.53981746	      3.82733157	      2.09054968	      0.03648698	      6.21822969	     -8.97356927	     -7.11401881	     -6.64830784	     -0.40079997	      2.70441486	      6.32335749	      0.11036341	      7.88086022	    -13.49851692	     -7.11401881	    -20.36696455	      0.01371277	      2.97541437	     11.21184194	     -3.61546631	     15.30200330	     23.19559319	     81.22290794	      7.30207252	     -2.89558253	      7.43949017	     18.58774145	     67.22524999
      0.01000000	      7.31152170	     -0.92953467	      1.67279473	     -0.93567011	      1.26965679	     -0.06953364	     -9.33730381	      1.52958735	      3.89921310	      2.13153361	      0.03720228	      6.39382193	     -9.00402153	     -7.11758970	     -6.63251605	     -0.35028266	      3.11542444	      6.71040842	      0.11711872	      8.33931945	    -13.79517218	     -7.11758970	    -20.43667970	     -0.08291651	      3.10363465	     11.13245854	     -3.75564951	     15.54421372	     23.36979800	     81.26753191	      7.18409845	     -2.78579234	      7.43938446	     18.59858344	     67.25625403
      0.01166670	      7.24532631	     -0.91307320	      1.64367182	     -0.93618313	      1.26983545	     -0.06979698	     -9.28659135	      1.51106774	      4.11519723	      2.08370514	      0.03636752	      6.33209835	     -9.25521470	     -7.22726410	     -6.47533755	     -0.29207404	      3.81897484	      6.85022718	      0.11955902	      8.22603458	    -14.90792128	     -7.22726410	    -20.44310968	     -0.19257548	      2.85374417	     11.35022572	     -4.26921056	     18.94340751	     23.67906413	     80.03959182	      7.17712239	     -2.85911788	      7.32274927	     18.81444092	     67.22817948
      0.01333330	      7.23516379	     -0.91614356	      1.56236261	     -0.93546048	      1.27419668	     -0.06933157	     -9.29253268	      1.50955356	      4.14644792	      2.06446027	      0.03603163	      6.32652469	     -9.24031424	     -7.22740774	     -6.45179672	     -0.31303442	      3.87763625	      6.88130838	      0.12010149	      8.23826721	    -14.91472497	     -7.22740774	    -20.47798816	     -0.25832904	      2.76782390	     11.25822007	     -4.31292142	     18.95302089	     23.64608935	     80.04109589	      7.22197045	     -2.82640184	      7.32430092	     18.83457251	     67.23152468
      0.01500000	      7.35145033	     -0.87713243	      1.71612533	     -0.93589604	      1.27412281	     -0.06940639	     -9.54570350	      1.49428913	      4.15182082	      1.74916737	      0.03052873	      5.98519637	     -9.23068978	     -7.28354005	     -6.47099874	     -0.26790806	      4.75605073	      7.06290086	      0.12327087	      7.90854726	    -15.88669066	     -7.28354005	    -20.83588059	     -0.41526730	      2.40125147	     11.27940982	     -4.55241609	     20.39952536	     23.86281696	     79.33386513	      7.28277452	     -2.90786527	      6.92336868	     19.18032808	     67.14465052
      0.01666670	      7.33847338	     -0.88500731	      1.77434405	     -0.93604952	      1.27389339	     -0.06959499	     -9.60984163	      1.51789177	      4.31220263	      1.55800052	      0.02719224	      5.54189551	     -9.53193399	     -7.32382600	     -6.54571208	     -0.26613556	      5.13412308	      6.97773913	      0.12178452	      7.68305980	    -16.22761320	     -7.32382600	    -20.88126762	     -0.47915418	      2.13241516	     11.35020927	     -4.71085728	     21.62927869	     23.72587136	     78.74882748	      7.26910382	     -2.93333873	      6.49917269	     19.29445955	     67.27391764
      0.01833330	      7.49604262	     -0.93385851	      1.76603387	     -0.93624934	      1.27025483	     -0.06930943	     -9.82181144	      1.58968435	      4.37934697	      1.45409542	      0.02537875	      5.48087058	     -9.56920353	     -7.34299530	     -6.75700689	     -0.30459309	      5.37989423	      6.97752925	      0.12178086	      7.65974814	    -16.43833481	     -7.34299530	    -21.19793483	     -0.48946400	      1.90541602	     11.49526433	     -4.86057833	     22.25538054	     23.69229308	     79.16595520	      7.34597222	     -2.93004682	      5.95924365	     19.32013368	     67.86923741
      0.02000000	      7.62661275	     -0.96708747	      1.74208212	     -0.93625308	      1.27107667	     -0.06929079	     -9.99493827	      1.65137999	      4.38120937	      1.34953086	      0.02355376	      5.57255179	     -9.25851699	     -7.41527708	     -6.96589490	     -0.34189835	      5.51533880	      6.91988867	      0.12077484	      7.58498279	    -16.42107578	     -7.41527708	    -21.50424825	     -0.46408785	      1.69848215	     11.58266075	     -5.04016627	     23.12565343	     23.82375613	     75.95572061	      7.28808588	     -2.92495223	      5.28219502	     19.33594348	     66.61758422
      0.02166670	      7.80735903	     -1.00469447	      1.64841773	     -0.93629103	      1.27128843	     -0.06932103	    -10.22622956	      1.68456586	      4.44592965	      1.25845793	      0.02196423	      5.53415090	     -9.32312530	     -7.43313966	     -7.32728711	     -0.38852830	      5.48508761	      6.69727307	      0.11688947	      7.53606666	    -16.40893142	     -7.43313966	    -21.72006723	     -0.42406857	      1.65997061	     11.67162117	     -5.18908242	     23.58983230	     23.76235309	     76.19361077	      7.29092025	     -2.89640696	      4.88102200	     19.19829371	     66.84795868
      0.02333330	      7.79862610	     -1.00041403	      1.47934639	     -0.93634078	      1.27534627	     -0.06932461	    -10.17510773	      1.64162297	      4.39121254	      1.20031231	      0.02094940	      5.62543184	     -8.85966954	     -7.47609621	     -7.56507270	     -0.40737388	      5.44741994	      6.17967342	      0.10785565	      7.35933898	    -16.18749665	     -7.47609621	    -21.82618580	     -0.44630153	      1.58744738	     11.76644122	     -5.20668801	     22.96356580	     23.65627655	     79.95696114	      7.23410476	     -2.82528553	      3.69767225	     18.98321018	     69.40211542
      0.02500000	      7.91659875	     -0.98397751	      1.41470798	     -0.93653017	      1.27546860	     -0.06941996	    -10.26168640	      1.61360568	      4.27094352	      1.16093114	      0.02026207	      5.65679202	     -8.35593855	     -7.48881302	     -7.81979696	     -0.41026032	      5.30700655	      5.97035701	      0.10420239	      7.47794439	    -15.59874447	     -7.48881302	    -22.06063548	     -0.43162883	      1.41112552	     11.89398511	     -5.13205992	     23.16179945	     23.59180614	     74.88577678	      7.29126589	     -2.70016691	      2.93834716	     18.64515098	     66.62258794
      0.02666670	      7.98216025	     -0.96096595	      1.17251071	     -0.93672894	      1.26810135	     -0.06926519	    -10.29338131	      1.52649766	      4.63832729	      1.16424335	      0.02031988	      5.55899082	     -8.80010302	     -7.48895213	     -8.05594899	     -0.31632060	      5.44125162	      5.66673869	      0.09890325	      6.94053491	    -16.14466765	     -7.48895213	    -22.26740009	     -0.47848523	      1.63942077	     11.99064474	     -5.40507132	     23.66642071	     23.71169906	     76.51438467	      7.22560395	     -2.76885014	      3.07593253	     18.94084960	     67.34528794
      0.02833330	      7.91436489	     -0.99195655	      1.03645283	     -0.93654634	      1.26463564	     -0.06893872	    -10.15809469	      1.52759091	      4.98477490	      1.20265022	      0.02099021	      5.30309539	     -9.45190431	     -7.49148279	     -7.96448395	     -0.30122598	      5.52228601	      5.71174784	      0.09968881	      6.91298315	    -16.25650773	     -7.49148279	    -22.27960238	     -0.45313135	      1.64988691	     12.11138999	     -5.40155298	     23.58678860	     23.63129457	     77.25011600	      7.25682143	     -2.67654365	      2.56716877	     18.91081326	     67.62353895
      0.03000000	      7.91438761	     -1.01919469	      1.03890161	     -0.93675003	      1.26538266	     -0.06932475	    -10.11652090	      1.51673104	      4.65101309	      1.25397517	      0.02188600	      5.49637583	     -9.17883582	     -7.49563708	     -7.94020391	     -0.29422422	      5.76337697	      5.76867743	      0.10068241	      6.82298914	    -16.46696841	     -7.49563708	    -22.30958324	     -0.40241065	      1.65066904	     12.22674560	     -5.48424020	     24.10313071	     23.58345227	     75.76116825	      7.20852382	     -2.64443099	      2.31693585	     18.97124505	     66.80478410
